<svg xmlns="http://www.w3.org/2000/svg" viewBox="0 0 476.64 471.84"><defs><style>.cls-1{fill:#4ade80;}</style></defs><g id="Layer_1" data-name="Layer 1"><path class="cls-1" d="M572.17,469.37c-6.9-6.34-29.59-27.22-62.64-28-31.48-.73-60.42,16.49-76,37.31-11.93,16-9.42,25.26-24.65,44.65a126.51,126.51,0,0,1-36.65,31.32c-3.87,2.37-53.76,34-53.31,86.62a88.9,88.9,0,0,0,13.33,45.32c25.12,40.81,74.05,45.77,82.63,46.64,49.48,5,84.78-23.31,91.95-29.32,46.86,31.76,102.38,36.85,141.27,12,5.22-3.34,41.24-27.26,44-66.64,1.89-27.11-12.93-48.23-24-64-20.79-29.62-32.89-25.06-57.31-56C587.24,499.5,593.72,489.18,572.17,469.37Z" transform="translate(-267.09 -262)"/><path class="cls-1" d="M369.59,482.7c.57,8.95,2.08,33-14.66,46.64-12.95,10.57-29.65,9.06-36,8-26.51-4.44-46-30.42-50.64-55.31-6-32.11,11.05-70.09,36-76.63,12.41-3.25,23.95,2,25.32,2.67C341,413.45,346,423.2,354.93,441.39,364.15,460.09,368.76,469.44,369.59,482.7Z" transform="translate(-267.09 -262)"/><path class="cls-1" d="M458.89,430.72c-17.31,13.37-39.34,9.69-41.32,9.33-33.8-6.16-56.2-46.39-57.31-80-1.81-55,53-105.07,82.63-97.29C482.8,273.29,503.75,396.07,458.89,430.72Z" transform="translate(-267.09 -262)"/><path class="cls-1" d="M641.23,482.71c-.57,8.94-2.08,33,14.66,46.64,12.94,10.57,29.65,9.06,36,8,26.51-4.45,46-30.42,50.64-55.31,6-32.11-11.06-70.09-36-76.63-12.41-3.26-23.95,2-25.32,2.67-11.38,5.38-16.36,15.12-25.32,33.31C646.67,460.1,642.06,469.45,641.23,482.71Z" transform="translate(-267.09 -262)"/><path class="cls-1" d="M553.21,432.26c17.31,13.37,39.33,9.69,41.31,9.33,33.81-6.17,56.2-46.4,57.31-80,1.82-55-53-105.07-82.63-97.28C529.3,274.83,508.35,397.61,553.21,432.26Z" transform="translate(-267.09 -262)"/></g></svg>