<?xml version="1.0" standalone="no"?>
<!DOCTYPE svg PUBLIC "-//W3C//DTD SVG 20010904//EN"
 "http://www.w3.org/TR/2001/REC-SVG-20010904/DTD/svg10.dtd">
<svg version="1.0" xmlns="http://www.w3.org/2000/svg"
 width="954.000000pt" height="954.000000pt" viewBox="0 0 954.000000 954.000000"
 preserveAspectRatio="xMidYMid meet">
<metadata>
Created by potrace 1.14, written by Peter Selinger 2001-2017
</metadata>
<g transform="translate(0.000000,954.000000) scale(0.100000,-0.100000)"
fill="#000000" stroke="none">
<path d="M3210 9465 c-117 -30 -269 -98 -352 -156 -14 -11 -31 -19 -37 -19 -6
0 -11 -4 -11 -10 0 -5 -15 -17 -32 -26 -18 -9 -35 -20 -38 -23 -3 -3 -30 -26
-60 -51 -189 -152 -362 -350 -498 -566 -63 -101 -86 -143 -82 -153 1 -2 -2 -7
-7 -10 -18 -13 -125 -260 -132 -304 0 -4 -7 -23 -15 -42 -8 -19 -13 -35 -11
-35 3 0 0 -11 -5 -25 -9 -24 -12 -35 -26 -102 -3 -16 -9 -47 -15 -71 -5 -24
-7 -48 -4 -53 4 -5 3 -9 -2 -9 -22 0 -21 -424 1 -491 3 -8 7 -32 10 -54 7 -52
54 -234 67 -260 6 -12 11 -27 13 -35 13 -80 179 -410 243 -485 5 -5 23 -30 40
-55 104 -149 286 -310 445 -394 69 -37 177 -81 220 -90 13 -3 32 -7 43 -10 11
-2 39 -9 62 -14 61 -14 277 -13 356 2 37 7 67 11 67 9 0 -2 8 1 18 6 9 5 35
12 57 15 21 4 43 12 47 19 4 6 8 9 8 5 0 -10 140 51 169 73 13 11 29 19 35 19
6 0 19 8 28 18 8 9 25 24 35 32 99 75 235 244 272 338 8 17 17 32 22 32 5 0 9
7 9 15 0 8 13 43 29 77 16 35 33 77 37 93 4 17 10 35 15 40 4 6 8 13 8 18 1 4
1 8 2 10 0 1 2 9 4 17 1 8 11 44 20 80 18 71 20 78 35 160 22 125 28 174 36
310 13 212 3 531 -20 655 -3 17 -8 53 -11 80 -4 28 -17 104 -31 170 -14 66
-27 129 -29 140 -2 11 -8 35 -13 53 -6 18 -11 33 -11 35 1 9 -14 66 -22 82 -5
11 -11 29 -12 40 -2 11 -7 27 -10 35 -3 8 -16 44 -28 80 -12 35 -28 79 -36 97
-7 18 -13 34 -12 35 1 2 -25 55 -57 118 -61 122 -144 254 -195 311 -17 19 -38
43 -47 54 -24 30 -127 112 -164 131 -129 67 -273 80 -428 39z"/>
<path d="M6198 9464 c-3 -3 -34 -7 -69 -9 -143 -8 -298 -102 -419 -254 -19
-24 -43 -52 -52 -63 -10 -10 -17 -20 -15 -23 1 -2 -5 -13 -13 -23 -37 -45
-119 -204 -165 -317 -20 -49 -40 -99 -45 -110 -8 -19 -70 -218 -75 -240 -1 -5
-7 -30 -14 -55 -7 -25 -15 -56 -16 -70 -2 -14 -10 -53 -19 -88 -8 -34 -15 -65
-15 -67 -1 -3 -1 -6 -2 -7 0 -2 -2 -16 -4 -33 -2 -16 -6 -43 -9 -60 -3 -16 -8
-52 -11 -80 -4 -27 -8 -61 -11 -75 -24 -142 -24 -662 -1 -775 3 -11 8 -45 11
-76 4 -31 11 -71 16 -88 5 -17 9 -34 9 -36 0 -3 2 -18 5 -33 4 -15 8 -37 10
-49 11 -57 41 -149 50 -155 6 -4 8 -8 4 -8 -11 0 27 -102 75 -199 114 -228
264 -388 455 -485 28 -14 52 -24 52 -21 0 3 10 -1 23 -10 13 -8 27 -12 30 -8
4 3 7 2 7 -4 0 -5 6 -10 13 -11 6 0 30 -6 52 -12 167 -45 389 -52 551 -16 107
23 299 113 386 180 14 12 41 32 59 46 82 62 319 325 319 355 0 3 11 21 25 39
14 18 25 38 25 44 0 6 3 12 8 14 4 2 18 26 32 53 14 28 31 58 39 68 8 9 12 17
8 17 -3 0 8 27 24 60 16 33 29 66 29 73 0 8 3 17 8 21 4 4 7 11 8 14 0 4 3 14
7 22 25 64 64 196 74 250 2 14 8 44 14 68 5 24 7 48 4 53 -4 5 -2 9 2 9 5 0
10 10 10 23 2 43 12 172 13 177 6 20 -6 256 -15 300 -3 14 -8 41 -11 60 -2 19
-7 43 -10 52 -3 10 -7 30 -10 45 -8 45 -70 237 -101 310 -7 18 -13 35 -14 38
-2 26 -185 346 -201 353 -5 2 -8 8 -8 13 0 10 -72 108 -140 189 -60 72 -213
225 -274 275 -27 22 -54 45 -60 50 -58 55 -318 205 -397 230 -13 4 -28 8 -34
10 -45 14 -136 35 -165 38 -20 2 -41 6 -46 10 -6 3 -14 4 -16 1z"/>
<path d="M774 6625 c-65 -14 -224 -82 -224 -96 0 -5 -5 -9 -11 -9 -7 0 -30
-15 -53 -34 -133 -109 -238 -246 -315 -411 -24 -49 -47 -98 -53 -109 -8 -15
-22 -56 -44 -131 -9 -29 -35 -133 -40 -155 -2 -14 -6 -34 -9 -46 -27 -123 -27
-433 0 -554 7 -29 14 -67 19 -95 2 -11 11 -37 19 -58 9 -20 14 -37 12 -37 -8
0 100 -246 115 -260 3 -3 14 -21 24 -40 45 -82 138 -201 234 -297 57 -57 110
-103 118 -103 9 0 12 -4 9 -10 -3 -5 -2 -10 2 -10 5 0 33 -16 63 -36 54 -35
192 -105 214 -108 6 -1 16 -4 21 -8 13 -8 126 -37 174 -45 52 -9 279 -9 328
-1 116 20 313 94 313 119 0 5 6 9 13 9 12 0 60 37 111 87 54 53 138 178 146
218 1 6 5 15 10 20 6 8 28 66 37 100 1 6 7 28 13 50 43 159 48 481 10 655 -6
25 -13 56 -15 70 -3 14 -12 41 -20 61 -8 20 -11 39 -8 43 4 3 1 6 -5 6 -7 0
-11 3 -10 8 1 8 -9 39 -23 64 -5 10 -9 22 -9 27 0 17 -268 570 -281 581 -4 3
-10 16 -14 28 -17 56 -144 247 -208 313 -32 34 -112 99 -121 99 -3 0 -25 12
-49 27 -23 14 -42 25 -42 24 0 -1 -7 0 -15 3 -20 7 -122 35 -151 42 -52 12
-226 12 -285 -1z"/>
<path d="M8538 6635 c-1 -2 -19 -5 -38 -7 -78 -9 -254 -74 -271 -100 -3 -5 -8
-8 -11 -6 -9 6 -115 -87 -149 -131 -19 -24 -41 -52 -50 -61 -9 -9 -27 -37 -40
-61 -13 -24 -27 -45 -31 -47 -5 -2 -8 -8 -8 -14 0 -5 -16 -37 -35 -69 -19 -33
-35 -66 -35 -74 0 -7 -4 -15 -8 -17 -9 -3 -102 -190 -99 -198 1 -3 -8 -19 -21
-37 -12 -17 -22 -33 -22 -36 0 -2 -23 -54 -51 -113 -27 -60 -54 -118 -59 -129
-11 -24 -33 -78 -34 -85 -1 -3 -4 -10 -8 -16 -4 -6 -9 -21 -12 -35 -2 -13 -14
-50 -25 -81 -11 -32 -18 -58 -16 -58 2 0 0 -14 -5 -31 -22 -77 -32 -369 -18
-504 13 -117 51 -254 91 -330 6 -11 17 -33 26 -50 17 -34 62 -98 74 -103 4 -2
7 -8 7 -13 0 -31 229 -199 270 -199 9 0 20 -4 25 -9 6 -5 51 -19 100 -32 167
-42 392 -33 559 22 78 26 236 103 264 129 12 11 24 20 28 20 25 0 244 212 294
285 60 89 97 144 109 165 37 67 65 126 63 132 -1 3 5 12 13 18 8 7 15 18 15
26 0 7 5 25 12 41 6 15 12 31 13 36 2 4 4 9 5 12 1 3 4 10 5 15 1 6 4 12 5 15
1 3 4 10 5 15 1 6 3 11 5 13 1 1 3 9 5 17 2 8 11 46 20 84 9 38 19 88 22 110
8 56 8 373 0 416 -5 32 -13 72 -22 125 -2 11 -8 32 -13 46 -6 15 -8 30 -5 33
4 3 1 16 -5 29 -6 12 -18 45 -26 72 -38 132 -122 298 -214 422 -67 89 -200
223 -223 223 -4 0 -14 6 -21 14 -21 21 -113 65 -182 88 -41 13 -96 21 -168 23
-58 2 -108 2 -110 0z"/>
<path d="M4698 5895 c-2 -1 -32 -5 -68 -9 -130 -12 -306 -53 -416 -95 -29 -11
-54 -17 -58 -14 -3 4 -6 1 -6 -5 0 -7 -5 -12 -11 -12 -12 0 -218 -100 -253
-123 -11 -6 -45 -27 -75 -46 -31 -19 -60 -38 -66 -43 -5 -4 -46 -36 -90 -70
-135 -106 -278 -257 -363 -384 -60 -90 -99 -165 -159 -309 -72 -171 -119 -269
-160 -331 -18 -28 -33 -56 -33 -63 0 -6 -4 -11 -8 -11 -4 0 -15 -13 -25 -29
-49 -84 -293 -350 -412 -450 -80 -68 -148 -118 -255 -188 -30 -19 -67 -44 -82
-54 -15 -11 -30 -19 -33 -19 -6 0 -116 -73 -140 -92 -5 -5 -49 -39 -97 -77
-130 -104 -211 -180 -316 -297 -29 -32 -60 -68 -70 -79 -53 -59 -162 -210
-162 -224 0 -5 -4 -11 -8 -13 -19 -7 -169 -296 -175 -336 -2 -11 -9 -27 -16
-36 -7 -9 -11 -16 -7 -16 3 0 -1 -16 -9 -36 -8 -20 -17 -46 -20 -58 -2 -11 -9
-41 -16 -66 -23 -95 -27 -115 -34 -160 -11 -77 -17 -136 -15 -155 2 -29 2 -36
-3 -82 -2 -24 0 -43 4 -43 5 0 4 -11 -1 -25 -5 -14 -6 -25 -2 -25 4 0 7 -17 7
-38 -1 -93 57 -364 102 -472 3 -8 7 -20 8 -25 2 -6 16 -40 33 -76 17 -37 32
-72 34 -80 2 -8 6 -16 9 -19 3 -3 17 -25 30 -50 113 -208 286 -407 489 -560
18 -14 39 -31 46 -37 7 -7 15 -13 19 -13 4 0 26 -14 50 -30 24 -17 48 -30 53
-30 6 0 12 -4 14 -9 3 -9 168 -96 238 -126 25 -10 65 -27 89 -38 24 -10 51
-20 60 -23 9 -2 43 -13 75 -24 33 -11 67 -20 76 -20 9 0 20 -4 26 -8 5 -5 36
-15 69 -22 33 -8 65 -15 70 -16 150 -37 350 -59 540 -59 210 0 292 7 436 35
57 12 115 23 129 26 45 8 133 35 205 60 39 14 77 27 87 29 9 2 29 10 46 19 16
8 32 12 36 9 3 -4 6 -1 6 5 0 7 8 12 18 12 10 0 22 3 26 8 4 4 11 7 14 7 26 1
349 181 380 211 7 8 18 14 23 14 9 0 75 45 89 60 3 3 21 17 40 30 19 14 46 34
59 46 22 20 47 22 61 4 31 -37 463 -272 497 -269 3 0 9 -3 12 -8 3 -4 22 -14
41 -22 19 -7 76 -29 125 -48 77 -30 137 -51 168 -59 4 -1 9 -3 12 -4 3 -1 10
-4 15 -5 6 -1 13 -4 18 -5 4 -1 10 -2 14 -1 4 0 20 -4 35 -10 15 -6 35 -12 43
-14 8 -2 47 -11 85 -20 39 -10 81 -19 95 -22 14 -2 32 -5 40 -7 18 -3 112 -16
155 -21 17 -2 30 -4 30 -5 0 -5 154 -12 280 -12 142 0 191 3 310 18 80 10 90
11 90 13 0 1 13 4 30 6 43 6 126 25 155 36 14 5 34 11 45 13 11 3 40 12 65 21
25 9 52 18 62 20 39 8 250 109 336 160 163 97 432 333 542 475 19 25 38 50 43
55 37 46 100 136 114 165 10 19 21 37 24 40 6 4 92 177 95 190 0 3 3 12 7 20
21 55 63 200 71 245 18 97 21 135 20 275 0 155 -14 261 -50 371 -8 25 -16 54
-19 65 -15 72 -134 320 -211 442 -19 29 -34 57 -34 62 0 6 -4 10 -10 10 -5 0
-10 6 -10 13 0 8 -9 22 -20 32 -11 10 -20 22 -20 26 0 9 -169 248 -193 274 -6
7 -23 28 -37 47 -50 67 -280 288 -299 288 -5 0 -11 3 -13 8 -3 7 -45 42 -94
79 -16 12 -58 43 -94 70 -36 26 -70 52 -76 58 -6 5 -31 26 -55 45 -124 98
-366 364 -470 515 -19 28 -37 52 -40 55 -9 7 -121 189 -139 225 -8 17 -17 32
-20 35 -11 11 -70 136 -70 148 0 6 -4 12 -10 12 -5 0 -10 6 -10 14 0 13 -138
296 -149 306 -3 3 -22 28 -41 55 -19 28 -38 52 -42 53 -4 2 -8 9 -8 15 0 13
-207 218 -275 272 -27 22 -56 46 -64 53 -8 8 -32 25 -54 39 -39 25 -53 35 -82
61 -7 6 -18 12 -22 12 -5 0 -19 9 -31 20 -12 12 -22 18 -22 15 0 -4 -12 2 -27
13 -16 11 -77 43 -138 72 -60 28 -117 55 -125 59 -21 11 -217 72 -244 76 -11
2 -32 6 -46 9 -13 3 -40 8 -60 11 -20 3 -47 8 -60 11 -25 5 -317 14 -322 9z"/>
</g>
</svg>
